@startuml
title Gestión de Sanciones por Incumplimiento de Normas
state c1 <<choice>>

[*] --> Perfil : Revisión
Perfil --> Aviso : Incumple norma
Aviso --> Baneo : Avisos > 3
Baneo --> c1 : Clasifica gravedad
c1 --> AltaGravedad : Alta gravedad
c1 --> BajaGravedad : Baja gravedad
AltaGravedad --> Permanente : Bloqueo permanente
BajaGravedad --> Temporal : Bloqueo temporal
Permanente --> [*] : Fin
Temporal --> [*] : Fin
@enduml
