@startuml
title Sistema de Recomendación
state c1 <<choice>>
state c2 <<choice>>

[*] --> Perfil : Inicio
Perfil --> c1 : Realiza acción
c1 --> Categoria : Interactúa con categoría
c1 --> Perfil1 : Interactúa con perfil
Categoria --> c2 : Filtra
Perfil1 --> c2 : Filtra
c2 --> Contenido : Recomienda contenido
Contenido --> [*] : Fin
@enduml
