@startuml
title Clasificación de Perfil por Edad
state c1 <<choice>>
state c2 <<choice>>

[*] --> Perfil : Ingresa
Perfil --> c1 : Identifica edad
c1 --> MenorEdad : Menor de edad
c1 --> MayorEdad : Mayor de edad
MenorEdad --> c2 : Acceso restringido
MayorEdad --> c2 : Acceso completo
c2 --> contenido : Visualiza contenido
contenido --> [*] : Fin
@enduml
